<svg width="48" height="48" viewBox="0 0 48 48" fill="none" xmlns="http://www.w3.org/2000/svg">
<path d="M43.6701 2.84H4.33008C3.79965 2.84 3.29094 3.05071 2.91586 3.42578C2.54079 3.80086 2.33008 4.30956 2.33008 4.84V43.16C2.33008 43.6904 2.54079 44.1991 2.91586 44.5742C3.29094 44.9493 3.79965 45.16 4.33008 45.16H43.6701C44.2005 45.16 44.7092 44.9493 45.0843 44.5742C45.4594 44.1991 45.6701 43.6904 45.6701 43.16V4.84C45.6701 4.30956 45.4594 3.80086 45.0843 3.42578C44.7092 3.05071 44.2005 2.84 43.6701 2.84ZM19.1701 35.39L10.3001 26.53L13.1301 23.7L19.1301 29.7L34.8801 14L37.7101 16.83L19.1701 35.39Z" fill="#F1FAF2"/>
</svg>
