<svg width="19" height="19" viewBox="0 0 19 19" fill="none" xmlns="http://www.w3.org/2000/svg">
<circle cx="9.5" cy="9.5" r="8.5" stroke="#8A8A8A"/>
<path d="M7.08067 13.3636C6.96013 13.3636 6.8674 13.3079 6.80249 13.1966C6.74685 13.0854 6.75613 12.9787 6.83031 12.8767L8.90276 9.78892C8.9584 9.72401 8.9584 9.65447 8.90276 9.58028L6.89985 6.63156C6.82567 6.52956 6.8164 6.42292 6.87204 6.31165C6.93694 6.1911 7.03431 6.13083 7.16413 6.13083C7.5814 6.13083 7.89204 6.29774 8.09604 6.63156L9.58431 8.9961C9.58431 9.00537 9.58894 9.01001 9.59822 9.01001C9.61676 9.01001 9.62604 9.00537 9.62604 8.9961L11.1282 6.61765C11.3322 6.2931 11.6289 6.13083 12.0184 6.13083C12.1389 6.13083 12.227 6.18647 12.2827 6.29774C12.3476 6.40901 12.3429 6.51565 12.2688 6.61765L10.2659 9.58028C10.2102 9.65447 10.2102 9.72401 10.2659 9.78892L12.3383 12.8628C12.4032 12.9648 12.4032 13.0761 12.3383 13.1966C12.2827 13.3079 12.1946 13.3636 12.074 13.3636C11.6568 13.3636 11.3461 13.1966 11.1421 12.8628L9.58431 10.3731H9.54258L7.97085 12.8767C7.76685 13.2013 7.47013 13.3636 7.08067 13.3636Z" fill="#8A8A8A"/>
</svg>
