<svg width="48" height="48" viewBox="0 0 48 48" fill="none" xmlns="http://www.w3.org/2000/svg">
<path d="M43.6701 2.57986H4.33008C3.79965 2.57986 3.29094 2.79058 2.91586 3.16565C2.54079 3.54072 2.33008 4.04943 2.33008 4.57986V43.4199C2.33008 43.9503 2.54079 44.459 2.91586 44.8341C3.29094 45.2091 3.79965 45.4199 4.33008 45.4199H43.6701C44.2005 45.4199 44.7092 45.2091 45.0843 44.8341C45.4594 44.459 45.6701 43.9503 45.6701 43.4199V4.57986C45.6701 4.04943 45.4594 3.54072 45.0843 3.16565C44.7092 2.79058 44.2005 2.57986 43.6701 2.57986ZM41.6701 41.4199H6.33008V6.57986H41.6701V41.4199Z" fill="#F1FAF2"/>
<path d="M35.1001 20.9899L32.4001 18.0399L25.8101 24.0599V11.0799H21.8101V23.9299L15.6301 18.0399L12.8701 20.9299L23.7901 31.3299L35.1001 20.9899Z" fill="#F1FAF2"/>
<path d="M31.97 33.7799H16.03V37.7799H31.97V33.7799Z" fill="#F1FAF2"/>
</svg>
