<svg width="48" height="48" viewBox="0 0 48 48" fill="none" xmlns="http://www.w3.org/2000/svg">
<path d="M43.6701 2.58H4.33008C3.79965 2.58 3.29094 2.79072 2.91586 3.16579C2.54079 3.54086 2.33008 4.04957 2.33008 4.58V43.42C2.33008 43.9504 2.54079 44.4591 2.91586 44.8342C3.29094 45.2093 3.79965 45.42 4.33008 45.42H43.6701C44.2005 45.42 44.7092 45.2093 45.0843 44.8342C45.4594 44.4591 45.6701 43.9504 45.6701 43.42V4.58C45.6701 4.04957 45.4594 3.54086 45.0843 3.16579C44.7092 2.79072 44.2005 2.58 43.6701 2.58ZM32.0001 37.78H16.0001V33.78H32.0001V37.78ZM23.8101 31.33L12.8701 20.93L15.6301 18L21.8101 23.89V11.08H25.8101V24.08L32.4001 18.08L35.1001 21L23.8101 31.33Z" fill="#F1FAF2"/>
</svg>
