<svg width="48" height="48" viewBox="0 0 48 48" fill="none" xmlns="http://www.w3.org/2000/svg">
<path d="M33.1699 16.1799V10.4999C33.1699 8.82014 32.5033 7.20905 31.3165 6.02036C30.1297 4.83166 28.5197 4.16253 26.8399 4.15988H20.6899C19.0093 4.16253 17.3982 4.83134 16.2098 6.01975C15.0214 7.20815 14.3526 8.81922 14.3499 10.4999V16.1799C12.9732 16.2009 11.6598 16.7619 10.6927 17.742C9.72568 18.7222 9.18239 20.043 9.17993 21.4199V38.5999C9.18258 39.9905 9.73687 41.3233 10.7212 42.3057C11.7054 43.2881 13.0393 43.8399 14.4299 43.8399H33.0999C34.4889 43.8372 35.8201 43.2843 36.8022 42.3022C37.7844 41.3201 38.3373 39.9888 38.3399 38.5999V21.4199C38.3401 20.0422 37.7976 18.7199 36.83 17.7392C35.8624 16.7585 34.5475 16.1983 33.1699 16.1799ZM20.6899 7.99988H26.8399C27.5118 8.00253 28.1553 8.2713 28.6295 8.74736C29.1037 9.22341 29.3699 9.86796 29.3699 10.5399V16.2199H18.1499V10.4999C18.1604 9.83319 18.4327 9.19736 18.9079 8.72963C19.3831 8.26191 20.0232 7.9998 20.6899 7.99988ZM34.5399 38.5999C34.527 38.974 34.3699 39.3286 34.1016 39.5896C33.8332 39.8505 33.4743 39.9975 33.0999 39.9999H14.4299C14.0573 39.995 13.701 39.8468 13.4347 39.5861C13.1684 39.3255 13.0127 38.9723 12.9999 38.5999V21.4199C13.0052 21.0432 13.1578 20.6835 13.4251 20.418C13.6925 20.1526 14.0532 20.0025 14.4299 19.9999H33.0999C33.4818 19.9999 33.8481 20.1516 34.1182 20.4216C34.3882 20.6917 34.5399 21.058 34.5399 21.4399V38.5999Z" fill="#F1FAF2"/>
<path d="M23.7601 24.6699C22.8939 24.671 22.0526 24.9597 21.3683 25.4907C20.684 26.0217 20.1953 26.7649 19.9791 27.6036C19.7628 28.4424 19.8312 29.3292 20.1734 30.1248C20.5157 30.9205 21.1124 31.58 21.8701 31.9999V35.9999C21.8701 36.5038 22.0702 36.9871 22.4266 37.3434C22.7829 37.6997 23.2661 37.8999 23.7701 37.8999C24.274 37.8999 24.7572 37.6997 25.1136 37.3434C25.4699 36.9871 25.6701 36.5038 25.6701 35.9999V31.9999C26.4344 31.5817 27.0371 30.9202 27.3827 30.1204C27.7282 29.3206 27.7967 28.4282 27.5773 27.5851C27.3579 26.7419 26.8631 25.9961 26.1716 25.4662C25.48 24.9363 24.6313 24.6525 23.7601 24.6599V24.6699Z" fill="#F1FAF2"/>
</svg>
