<svg width="48" height="48" viewBox="0 0 48 48" fill="none" xmlns="http://www.w3.org/2000/svg">
<path d="M33.4099 16.18V10.5C33.4099 8.81853 32.742 7.20593 31.553 6.01695C30.364 4.82797 28.7514 4.16 27.0699 4.16H20.9299C19.2484 4.16 17.6358 4.82797 16.4469 6.01695C15.2579 7.20593 14.5899 8.81853 14.5899 10.5V16.18C13.2132 16.201 11.8998 16.762 10.9327 17.7421C9.96567 18.7223 9.42238 20.0431 9.41992 21.42V38.6C9.42256 39.9889 9.97548 41.3202 10.9576 42.3023C11.9397 43.2844 13.271 43.8374 14.6599 43.84H33.3399C34.7288 43.8374 36.0601 43.2844 37.0422 42.3023C38.0244 41.3202 38.5773 39.9889 38.5799 38.6V21.42C38.5775 20.0431 38.0342 18.7223 37.0671 17.7421C36.1001 16.762 34.7867 16.201 33.4099 16.18ZM25.7499 32.1V37C25.7499 37.4641 25.5655 37.9093 25.2374 38.2374C24.9092 38.5656 24.4641 38.75 23.9999 38.75C23.5358 38.75 23.0907 38.5656 22.7625 38.2374C22.4343 37.9093 22.2499 37.4641 22.2499 37V32.1C21.4566 31.7055 20.8198 31.0544 20.443 30.2525C20.0662 29.4506 19.9714 28.5449 20.1741 27.6823C20.3767 26.8198 20.8649 26.051 21.5594 25.5008C22.2539 24.9505 23.1139 24.6511 23.9999 24.6511C24.886 24.6511 25.746 24.9505 26.4405 25.5008C27.1349 26.051 27.6231 26.8198 27.8258 27.6823C28.0284 28.5449 27.9336 29.4506 27.5568 30.2525C27.18 31.0544 26.5433 31.7055 25.7499 32.1ZM29.6099 16.18H18.3899V10.5C18.4004 9.83331 18.6727 9.19748 19.1479 8.72976C19.6231 8.26203 20.2631 7.99992 20.9299 8H27.0699C27.7436 8 28.3896 8.26761 28.866 8.74395C29.3423 9.22029 29.6099 9.86635 29.6099 10.54V16.18Z" fill="#F1FAF2"/>
</svg>
