<svg width="48" height="48" viewBox="0 0 48 48" fill="none" xmlns="http://www.w3.org/2000/svg">
<path d="M30.5 25.4699L28 23.9999L30.47 22.5299C32.0225 21.5944 33.3082 20.2751 34.2031 18.6988C35.0981 17.1225 35.5722 15.3425 35.58 13.5299V4.52988C35.58 3.99944 35.3693 3.49074 34.9942 3.11566C34.6191 2.74059 34.1104 2.52988 33.58 2.52988H14.22C13.6895 2.52988 13.1808 2.74059 12.8058 3.11566C12.4307 3.49074 12.22 3.99944 12.22 4.52988V13.3899C12.2231 15.2382 12.7127 17.0531 13.6395 18.6522C14.5664 20.2514 15.8978 21.5784 17.5 22.4999L20 23.9999L17.53 25.4699C15.9781 26.4061 14.693 27.7256 13.7981 29.3017C12.9032 30.8778 12.4287 32.6575 12.42 34.4699V43.4699C12.42 44.0003 12.6307 44.509 13.0058 44.8841C13.3808 45.2592 13.8895 45.4699 14.42 45.4699H33.78C34.3104 45.4699 34.8191 45.2592 35.1942 44.8841C35.5693 44.509 35.78 44.0003 35.78 43.4699V34.5799C35.7789 32.7312 35.2901 30.9155 34.3631 29.316C33.4361 27.7165 32.1035 26.3898 30.5 25.4699ZM16.22 13.4699V6.55988H31.54V13.5599C31.5379 14.6819 31.2459 15.7844 30.6922 16.7603C30.1386 17.7362 29.342 18.5525 28.38 19.1299L24.06 21.7099L19.49 19.0899C18.4935 18.5169 17.6662 17.6907 17.0919 16.6949C16.5177 15.6992 16.2168 14.5693 16.22 13.4199V13.4699ZM31.78 41.4699H16.46V34.4699C16.4613 33.3463 16.7529 32.2422 17.3066 31.2645C17.8602 30.2869 18.6571 29.4689 19.62 28.8899L23.93 26.3099L28.5 28.9299C29.4927 29.4995 30.3177 30.3209 30.8918 31.311C31.4659 32.3012 31.7688 33.4253 31.77 34.5699L31.78 41.4699Z" fill="#F1FAF2"/>
</svg>
