<svg width="48" height="48" viewBox="0 0 48 48" fill="none" xmlns="http://www.w3.org/2000/svg">
<path d="M30.5 25.47L28 24L30.47 22.53C32.0225 21.5945 33.3082 20.2752 34.2031 18.6989C35.0981 17.1227 35.5722 15.3426 35.58 13.53V4.53C35.58 3.99957 35.3693 3.49086 34.9942 3.11579C34.6191 2.74071 34.1104 2.53 33.58 2.53H14.22C13.6895 2.53 13.1808 2.74071 12.8058 3.11579C12.4307 3.49086 12.22 3.99957 12.22 4.53V13.39C12.2231 15.2383 12.7127 17.0532 13.6395 18.6523C14.5664 20.2515 15.8978 21.5785 17.5 22.5L20 24L17.53 25.47C15.9781 26.4062 14.693 27.7257 13.7981 29.3018C12.9032 30.8779 12.4287 32.6576 12.42 34.47V43.47C12.42 44.0004 12.6307 44.5091 13.0058 44.8842C13.3808 45.2593 13.8895 45.47 14.42 45.47H33.78C34.3104 45.47 34.8191 45.2593 35.1942 44.8842C35.5693 44.5091 35.78 44.0004 35.78 43.47V34.58C35.7789 32.7313 35.2901 30.9156 34.3631 29.3161C33.4361 27.7166 32.1035 26.39 30.5 25.47ZM16.22 13.47V13.57H31.54C31.5379 14.692 31.2459 15.7945 30.6922 16.7704C30.1386 17.7464 29.342 18.5626 28.38 19.14L24.06 21.72L19.49 19.1C18.492 18.5262 17.6638 17.6984 17.0894 16.7007C16.5151 15.7031 16.2151 14.5712 16.22 13.42V13.47ZM31.78 34.68H16.46V34.48C16.4613 33.3565 16.7529 32.2523 17.3066 31.2747C17.8602 30.297 18.6571 29.479 19.62 28.9L23.93 26.32L28.5 28.94C29.4927 29.5097 30.3177 30.331 30.8918 31.3212C31.4659 32.3114 31.7688 33.4354 31.77 34.58L31.78 34.68Z" fill="#F1FAF2"/>
</svg>
