<svg width="21" height="22" viewBox="0 0 21 22" fill="none" xmlns="http://www.w3.org/2000/svg">
<path d="M19.1058 1.74219H1.89453C1.66247 1.74219 1.43991 1.83437 1.27581 1.99847C1.11172 2.16256 1.01953 2.38512 1.01953 2.61719V19.3822C1.01953 19.6143 1.11172 19.8368 1.27581 20.0009C1.43991 20.165 1.66247 20.2572 1.89453 20.2572H19.1058C19.3378 20.2572 19.5604 20.165 19.7245 20.0009C19.8886 19.8368 19.9808 19.6143 19.9808 19.3822V2.61719C19.9808 2.38512 19.8886 2.16256 19.7245 1.99847C19.5604 1.83437 19.3378 1.74219 19.1058 1.74219ZM18.2308 18.5072H2.76953V3.49219H18.2308V18.5072Z" fill="#F1FAF2"/>
<path d="M9.84761 15.8128C9.92972 15.9059 10.0307 15.9805 10.1438 16.0316C10.257 16.0826 10.3797 16.1091 10.5039 16.1091C10.628 16.1091 10.7507 16.0826 10.8639 16.0316C10.977 15.9805 11.078 15.9059 11.1601 15.8128L14.9532 11.5822C15.0971 11.4217 15.1767 11.2137 15.1767 10.9981C15.1767 10.7826 15.0971 10.5746 14.9532 10.4141L11.1514 6.18782C11.0671 6.0983 10.9654 6.02697 10.8525 5.97821C10.7397 5.92945 10.618 5.9043 10.4951 5.9043C10.3722 5.9043 10.2505 5.92945 10.1377 5.97821C10.0248 6.02697 9.92312 6.0983 9.83886 6.18782L6.04573 10.4228C5.90184 10.5833 5.82227 10.7913 5.82227 11.0069C5.82227 11.2224 5.90184 11.4304 6.04573 11.5909L9.84761 15.8128ZM10.4995 8.07782L13.1245 11.0003L10.4995 13.9228L7.87448 11.0003L10.4995 8.07782Z" fill="#F1FAF2"/>
</svg>
