<svg width="48" height="48" viewBox="0 0 48 48" fill="none" xmlns="http://www.w3.org/2000/svg">
<path d="M24.11 17.73C22.8481 17.73 21.6146 18.1042 20.5654 18.8052C19.5163 19.5063 18.6985 20.5027 18.2156 21.6685C17.7327 22.8343 17.6064 24.1171 17.8526 25.3547C18.0987 26.5923 18.7064 27.7291 19.5986 28.6213C20.4909 29.5136 21.6277 30.1212 22.8653 30.3674C24.1029 30.6136 25.3857 30.4872 26.5515 30.0043C27.7173 29.5215 28.7137 28.7037 29.4148 27.6545C30.1158 26.6053 30.49 25.3718 30.49 24.11C30.4873 22.4187 29.8143 20.7975 28.6184 19.6016C27.4225 18.4057 25.8013 17.7326 24.11 17.73Z" fill="#F1FAF2"/>
<path d="M44.24 18.61H40.77C40.4913 17.7883 40.1572 16.9865 39.77 16.21L42.22 13.76C42.406 13.5743 42.5535 13.3537 42.6541 13.1109C42.7548 12.8681 42.8066 12.6078 42.8066 12.345C42.8066 12.0822 42.7548 11.8219 42.6541 11.5791C42.5535 11.3363 42.406 11.1157 42.22 10.93L37.29 6C37.1043 5.81405 36.8837 5.66653 36.6409 5.56588C36.3981 5.46523 36.1378 5.41343 35.875 5.41343C35.6122 5.41343 35.3519 5.46523 35.1091 5.56588C34.8663 5.66653 34.6457 5.81405 34.46 6L32.12 8.32C31.3137 7.89323 30.4743 7.53207 29.61 7.24V4C29.61 3.46957 29.3993 2.96086 29.0242 2.58579C28.6491 2.21071 28.1404 2 27.61 2H20.61C20.0796 2 19.5709 2.21071 19.1958 2.58579C18.8207 2.96086 18.61 3.46957 18.61 4V7C17.682 7.28958 16.779 7.65411 15.91 8.09L13.77 6C13.5843 5.81405 13.3637 5.66653 13.1209 5.56588C12.8781 5.46523 12.6178 5.41343 12.355 5.41343C12.0922 5.41343 11.8319 5.46523 11.5891 5.56588C11.3463 5.66653 11.1257 5.81405 10.94 6L6 10.93C5.81405 11.1157 5.66653 11.3363 5.56588 11.5791C5.46523 11.8219 5.41343 12.0822 5.41343 12.345C5.41343 12.6078 5.46523 12.8681 5.56588 13.1109C5.66653 13.3537 5.81405 13.5743 6 13.76L8 15.82C7.53019 16.7145 7.13873 17.648 6.83 18.61H4C3.46957 18.61 2.96086 18.8207 2.58579 19.1958C2.21071 19.5709 2 20.0796 2 20.61V27.61C2 28.1404 2.21071 28.6491 2.58579 29.0242C2.96086 29.3993 3.46957 29.61 4 29.61H6.9C7.20888 30.5623 7.60037 31.4858 8.07 32.37L6 34.45C5.81283 34.6361 5.66434 34.8573 5.56308 35.101C5.46182 35.3447 5.40979 35.6061 5.41 35.87C5.41223 36.3996 5.62441 36.9066 6 37.28L10.95 42.23C11.3325 42.5915 11.8388 42.7929 12.365 42.7929C12.8912 42.7929 13.3975 42.5915 13.78 42.23L16 40C16.853 40.4275 17.7393 40.7853 18.65 41.07V44.2C18.65 44.7304 18.8607 45.2391 19.2358 45.6142C19.6109 45.9893 20.1196 46.2 20.65 46.2H27.65C28.1804 46.2 28.6891 45.9893 29.0642 45.6142C29.4393 45.2391 29.65 44.7304 29.65 44.2V40.9C30.4937 40.6283 31.316 40.294 32.11 39.9L34.5 42.28C34.8734 42.6556 35.3804 42.8678 35.91 42.87C36.1739 42.8702 36.4353 42.8182 36.679 42.7169C36.9227 42.6157 37.1439 42.4672 37.33 42.28L42.33 37.33C42.516 37.1443 42.6635 36.9237 42.7641 36.6809C42.8648 36.4381 42.9166 36.1778 42.9166 35.915C42.9166 35.6522 42.8648 35.3919 42.7641 35.1491C42.6635 34.9063 42.516 34.6857 42.33 34.5L39.77 32C40.1573 31.2339 40.4914 30.442 40.77 29.63H44.27C44.8004 29.63 45.3091 29.4193 45.6842 29.0442C46.0593 28.6691 46.27 28.1604 46.27 27.63V20.63C46.2727 20.3631 46.222 20.0984 46.1208 19.8515C46.0196 19.6045 45.87 19.3803 45.6808 19.1921C45.4916 19.0038 45.2667 18.8553 45.0193 18.7554C44.7718 18.6554 44.5069 18.606 44.24 18.61ZM24.11 34.49C22.057 34.49 20.0502 33.8812 18.3432 32.7407C16.6362 31.6001 15.3058 29.979 14.5201 28.0823C13.7345 26.1856 13.5289 24.0985 13.9294 22.085C14.33 20.0714 15.3186 18.2219 16.7702 16.7702C18.2219 15.3186 20.0714 14.33 22.085 13.9294C24.0985 13.5289 26.1856 13.7345 28.0823 14.5201C29.979 15.3058 31.6001 16.6362 32.7407 18.3432C33.8812 20.0502 34.49 22.057 34.49 24.11C34.4847 26.8613 33.3894 29.4984 31.4439 31.4439C29.4984 33.3894 26.8613 34.4847 24.11 34.49Z" fill="#F1FAF2"/>
</svg>
