<svg width="48" height="48" viewBox="0 0 48 48" fill="none" xmlns="http://www.w3.org/2000/svg">
<path d="M27.61 46.2399H20.61C20.0796 46.2399 19.5709 46.0292 19.1958 45.6541C18.8207 45.279 18.61 44.7703 18.61 44.2399V41.1099C17.7117 40.8103 16.8389 40.4391 16 39.9999L13.81 42.1899C13.4275 42.5514 12.9212 42.7528 12.395 42.7528C11.8688 42.7528 11.3625 42.5514 10.98 42.1899L6 37.2799C5.62441 36.9065 5.41223 36.3995 5.41 35.8699C5.40979 35.606 5.46182 35.3446 5.56308 35.1009C5.66434 34.8572 5.81283 34.6359 6 34.4499L8.08 32.3699C7.60694 31.486 7.2121 30.5625 6.9 29.6099H4C3.46957 29.6099 2.96086 29.3992 2.58579 29.0241C2.21071 28.649 2 28.1403 2 27.6099V20.6099C2 20.0794 2.21071 19.5707 2.58579 19.1957C2.96086 18.8206 3.46957 18.6099 4 18.6099H6.87C7.16583 17.6491 7.5439 16.7157 8 15.8199L6 13.7599C5.81405 13.5741 5.66653 13.3536 5.56588 13.1108C5.46523 12.868 5.41343 12.6077 5.41343 12.3449C5.41343 12.082 5.46523 11.8218 5.56588 11.579C5.66653 11.3362 5.81405 11.1156 6 10.9299L10.94 5.99988C11.1257 5.81393 11.3463 5.66641 11.5891 5.56576C11.8319 5.46511 12.0922 5.4133 12.355 5.4133C12.6178 5.4133 12.8781 5.46511 13.1209 5.56576C13.3637 5.66641 13.5843 5.81393 13.77 5.99988L15.91 8.13988C16.7774 7.68688 17.6804 7.3056 18.61 6.99988V3.99988C18.61 3.46944 18.8207 2.96074 19.1958 2.58566C19.5709 2.21059 20.0796 1.99988 20.61 1.99988H27.61C28.1404 1.99988 28.6491 2.21059 29.0242 2.58566C29.3993 2.96074 29.61 3.46944 29.61 3.99988V7.23988C30.4743 7.53194 31.3137 7.89311 32.12 8.31988L34.46 5.99988C34.6457 5.81393 34.8663 5.66641 35.1091 5.56576C35.3519 5.46511 35.6122 5.4133 35.875 5.4133C36.1378 5.4133 36.3981 5.46511 36.6409 5.56576C36.8837 5.66641 37.1043 5.81393 37.29 5.99988L42.29 10.9499C42.476 11.1356 42.6235 11.3562 42.7241 11.599C42.8248 11.8418 42.8766 12.102 42.8766 12.3649C42.8766 12.6277 42.8248 12.888 42.7241 13.1308C42.6235 13.3736 42.476 13.5941 42.29 13.7799L39.84 16.2299C40.2272 17.0063 40.5613 17.8082 40.84 18.6299H44.31C44.8404 18.6299 45.3491 18.8406 45.7242 19.2157C46.0993 19.5907 46.31 20.0994 46.31 20.6299V27.6299C46.31 28.1603 46.0993 28.669 45.7242 29.0441C45.3491 29.4192 44.8404 29.6299 44.31 29.6299H40.81C40.5314 30.4419 40.1973 31.2338 39.81 31.9999L42.28 34.4699C42.466 34.6556 42.6135 34.8762 42.7141 35.119C42.8148 35.3618 42.8666 35.622 42.8666 35.8849C42.8666 36.1477 42.8148 36.408 42.7141 36.6508C42.6135 36.8936 42.466 37.1141 42.28 37.2999L37.28 42.2499C37.0939 42.437 36.8727 42.5855 36.629 42.6868C36.3853 42.7881 36.1239 42.8401 35.86 42.8399C35.3304 42.8376 34.8234 42.6255 34.45 42.2499L32.06 39.8699C31.266 40.2639 30.4437 40.5982 29.6 40.8699V44.2099C29.604 44.4742 29.5555 44.7367 29.4574 44.9821C29.3593 45.2276 29.2135 45.4512 29.0284 45.64C28.8434 45.8287 28.6227 45.979 28.3793 46.0819C28.1358 46.1849 27.8743 46.2386 27.61 46.2399ZM22.61 42.2399H25.61V40.5699C25.5999 39.8286 25.826 39.1033 26.2557 38.4992C26.6855 37.8951 27.2964 37.4435 28 37.2099C28.859 36.9376 29.6896 36.5827 30.48 36.1499C31.1412 35.7916 31.9004 35.6564 32.6446 35.7645C33.3888 35.8727 34.0781 36.2183 34.61 36.7499L35.87 37.9999L38 35.8699L36.68 34.5499C36.144 34.0369 35.7882 33.3645 35.6657 32.6328C35.5431 31.9011 35.6604 31.1495 36 30.4899C36.4074 29.7089 36.7421 28.8921 37 28.0499C37.222 27.341 37.665 26.7218 38.2641 26.2828C38.8633 25.8437 39.5872 25.608 40.33 25.6099H42.2V22.6099H40.4C39.6534 22.611 38.926 22.3727 38.3249 21.93C37.7237 21.4872 37.2804 20.8633 37.06 20.1499C36.8048 19.3035 36.4699 18.4831 36.06 17.6999C35.7202 17.0432 35.5991 16.2952 35.7142 15.5649C35.8293 14.8346 36.1747 14.1602 36.7 13.6399L38 12.3499L35.87 10.2199L34.68 11.4099C34.1507 11.9458 33.461 12.2944 32.7156 12.4026C31.9703 12.5109 31.2099 12.373 30.55 12.0099C29.7378 11.5665 28.8836 11.2047 28 10.9299C27.2881 10.7014 26.6681 10.2509 26.2309 9.64445C25.7936 9.03801 25.562 8.30748 25.57 7.55988V5.99988H22.57V7.40988C22.57 8.16717 22.3244 8.90404 21.87 9.50988C21.4156 10.1157 20.777 10.5578 20.05 10.7699C19.1245 11.0307 18.2295 11.3894 17.38 11.8399C16.7229 12.1888 15.9706 12.316 15.2354 12.2025C14.5001 12.089 13.8212 11.7408 13.3 11.2099L12.3 10.2099L10.18 12.3399L11.09 13.2399C11.6231 13.7753 11.9686 14.4688 12.075 15.2168C12.1813 15.9648 12.0428 16.7271 11.68 17.3899C11.2012 18.2566 10.8157 19.1718 10.53 20.1199C10.3132 20.837 9.87138 21.4653 9.26989 21.9119C8.66841 22.3585 7.93917 22.5997 7.19 22.5999H6V25.5999H7.27C8.01625 25.6003 8.74284 25.8392 9.34371 26.2818C9.94457 26.7243 10.3883 27.3473 10.61 28.0599C10.8938 29.0007 11.2759 29.9091 11.75 30.7699C12.1152 31.4337 12.2551 32.1981 12.1487 32.9483C12.0423 33.6984 11.6954 34.3938 11.16 34.9299L10.23 35.8599L12.35 37.9999L13.35 36.9999C13.8693 36.4696 14.5458 36.1209 15.279 36.0056C16.0122 35.8903 16.763 36.0146 17.42 36.3599C18.2583 36.7865 19.14 37.1218 20.05 37.3599C20.7762 37.5734 21.4139 38.0159 21.868 38.6214C22.3221 39.2269 22.5684 39.963 22.57 40.7199L22.61 42.2399Z" fill="#F1FAF2"/>
<path d="M24.11 34.4899C22.057 34.4899 20.0501 33.8811 18.3432 32.7405C16.6362 31.5999 15.3058 29.9788 14.5201 28.0821C13.7345 26.1854 13.5289 24.0983 13.9294 22.0848C14.3299 20.0713 15.3185 18.2218 16.7702 16.7701C18.2219 15.3184 20.0714 14.3298 22.0849 13.9293C24.0985 13.5288 26.1855 13.7344 28.0822 14.52C29.9789 15.3056 31.6001 16.6361 32.7406 18.343C33.8812 20.05 34.49 22.0569 34.49 24.1099C34.4847 26.8612 33.3894 29.4983 31.4439 31.4438C29.4984 33.3893 26.8613 34.4846 24.11 34.4899ZM24.11 17.7299C22.8481 17.7299 21.6146 18.104 20.5654 18.8051C19.5163 19.5061 18.6985 20.5026 18.2156 21.6683C17.7327 22.8341 17.6064 24.1169 17.8526 25.3545C18.0987 26.5921 18.7064 27.7289 19.5986 28.6212C20.4909 29.5135 21.6277 30.1211 22.8653 30.3673C24.1029 30.6134 25.3857 30.4871 26.5515 30.0042C27.7173 29.5213 28.7137 28.7036 29.4148 27.6544C30.1158 26.6052 30.49 25.3717 30.49 24.1099C30.4873 22.4186 29.8143 20.7974 28.6184 19.6014C27.4225 18.4055 25.8013 17.7325 24.11 17.7299Z" fill="#F1FAF2"/>
</svg>
