<svg width="200" height="65" viewBox="0 0 200 65" fill="none" xmlns="http://www.w3.org/2000/svg">
<path d="M77.392 52V32.896H70.864V29.6H88.048V32.896H81.488V52H77.392ZM95.8233 52.384C94.2233 52.384 92.8046 52.0427 91.5673 51.36C90.3299 50.6773 89.3593 49.7173 88.6553 48.48C87.9513 47.2427 87.5993 45.8133 87.5993 44.192C87.5993 42.5493 87.9406 41.088 88.6233 39.808C89.3273 38.528 90.2873 37.536 91.5033 36.832C92.7406 36.1067 94.1913 35.744 95.8553 35.744C97.4126 35.744 98.7886 36.0853 99.9833 36.768C101.178 37.4507 102.106 38.3893 102.767 39.584C103.45 40.7573 103.791 42.0693 103.791 43.52C103.791 43.7547 103.781 44 103.759 44.256C103.759 44.512 103.749 44.7787 103.727 45.056H91.6633C91.7486 46.2933 92.1753 47.264 92.9433 47.968C93.7326 48.672 94.6819 49.024 95.7913 49.024C96.6233 49.024 97.3166 48.8427 97.8713 48.48C98.4473 48.096 98.8739 47.6053 99.1513 47.008H103.311C103.013 48.0107 102.511 48.928 101.807 49.76C101.125 50.5707 100.271 51.2107 99.2473 51.68C98.2446 52.1493 97.1033 52.384 95.8233 52.384ZM95.8553 39.072C94.8526 39.072 93.9673 39.36 93.1993 39.936C92.4313 40.4907 91.9406 41.344 91.7273 42.496H99.6313C99.5673 41.4507 99.1833 40.6187 98.4793 40C97.7753 39.3813 96.9006 39.072 95.8553 39.072ZM106.212 52V48.704L114.308 39.52H106.308V36.128H118.98V39.424L110.756 48.608H119.14V52H106.212ZM130.261 52.384C128.661 52.384 127.242 52.0427 126.005 51.36C124.767 50.6773 123.797 49.7173 123.093 48.48C122.389 47.2427 122.037 45.8133 122.037 44.192C122.037 42.5493 122.378 41.088 123.061 39.808C123.765 38.528 124.725 37.536 125.941 36.832C127.178 36.1067 128.629 35.744 130.293 35.744C131.85 35.744 133.226 36.0853 134.421 36.768C135.615 37.4507 136.543 38.3893 137.205 39.584C137.887 40.7573 138.229 42.0693 138.229 43.52C138.229 43.7547 138.218 44 138.197 44.256C138.197 44.512 138.186 44.7787 138.165 45.056H126.101C126.186 46.2933 126.613 47.264 127.381 47.968C128.17 48.672 129.119 49.024 130.229 49.024C131.061 49.024 131.754 48.8427 132.309 48.48C132.885 48.096 133.311 47.6053 133.589 47.008H137.749C137.45 48.0107 136.949 48.928 136.245 49.76C135.562 50.5707 134.709 51.2107 133.685 51.68C132.682 52.1493 131.541 52.384 130.261 52.384ZM130.293 39.072C129.29 39.072 128.405 39.36 127.637 39.936C126.869 40.4907 126.378 41.344 126.165 42.496H134.069C134.005 41.4507 133.621 40.6187 132.917 40C132.213 39.3813 131.338 39.072 130.293 39.072ZM141.674 52V36.128H145.322L145.706 39.104C146.282 38.08 147.06 37.2693 148.042 36.672C149.044 36.0533 150.218 35.744 151.562 35.744V40.064H150.41C149.514 40.064 148.714 40.2027 148.01 40.48C147.306 40.7573 146.751 41.2373 146.346 41.92C145.962 42.6027 145.77 43.552 145.77 44.768V52H141.674ZM156.569 33.664C155.823 33.664 155.204 33.44 154.713 32.992C154.244 32.544 154.009 31.9787 154.009 31.296C154.009 30.6133 154.244 30.0587 154.713 29.632C155.204 29.184 155.823 28.96 156.569 28.96C157.316 28.96 157.924 29.184 158.393 29.632C158.884 30.0587 159.129 30.6133 159.129 31.296C159.129 31.9787 158.884 32.544 158.393 32.992C157.924 33.44 157.316 33.664 156.569 33.664ZM154.521 52V36.128H158.617V52H154.521ZM170.509 52.384C168.973 52.384 167.586 52.032 166.349 51.328C165.133 50.624 164.162 49.6533 163.437 48.416C162.733 47.1573 162.381 45.7067 162.381 44.064C162.381 42.4213 162.743 40.9813 163.469 39.744C164.194 38.4853 165.165 37.504 166.381 36.8C167.618 36.096 169.005 35.744 170.541 35.744C172.055 35.744 173.421 36.096 174.637 36.8C175.874 37.504 176.845 38.4853 177.549 39.744C178.274 40.9813 178.637 42.4213 178.637 44.064C178.637 45.7067 178.274 47.1573 177.549 48.416C176.845 49.6533 175.874 50.624 174.637 51.328C173.399 52.032 172.023 52.384 170.509 52.384ZM170.509 48.832C171.575 48.832 172.503 48.4373 173.293 47.648C174.082 46.8373 174.477 45.6427 174.477 44.064C174.477 42.4853 174.082 41.3013 173.293 40.512C172.503 39.7013 171.586 39.296 170.541 39.296C169.453 39.296 168.514 39.7013 167.725 40.512C166.957 41.3013 166.573 42.4853 166.573 44.064C166.573 45.6427 166.957 46.8373 167.725 47.648C168.514 48.4373 169.442 48.832 170.509 48.832ZM182.299 52V36.128H185.915L186.235 38.816C186.725 37.8773 187.429 37.1307 188.347 36.576C189.285 36.0213 190.384 35.744 191.643 35.744C193.605 35.744 195.131 36.3627 196.219 37.6C197.307 38.8373 197.851 40.6507 197.851 43.04V52H193.755V43.424C193.755 42.0587 193.477 41.0133 192.923 40.288C192.368 39.5627 191.504 39.2 190.331 39.2C189.179 39.2 188.229 39.6053 187.483 40.416C186.757 41.2267 186.395 42.3573 186.395 43.808V52H182.299Z" fill="white"/>
<path d="M34.3806 62.3761C34.3806 62.8281 34.5355 63.2617 34.8111 63.5813C35.0867 63.901 35.4605 64.0806 35.8503 64.0806H41.05C41.4398 64.0806 45.5994 64.4002 45.875 64.0806C46.1506 63.7609 42.5197 62.8281 42.5197 62.3761L47.1668 43.5L42.5197 25.4945C42.5197 25.0419 46.1505 24.1054 45.875 23.785C45.5995 23.4645 41.4402 23.7863 41.05 23.785H35.4335C35.0433 23.7863 34.6695 23.967 34.394 24.2874C34.1185 24.6079 33.9638 25.0419 33.9638 25.4945V25.9281C33.9638 26.3801 34.1186 26.8137 34.3943 27.1333C34.6699 27.453 35.0437 27.6326 35.4335 27.6326H37.1524C37.5433 27.6326 37.9182 27.8127 38.1946 28.1333C38.4711 28.4539 38.6264 28.8887 38.6264 29.3421L38.5834 58.977C38.58 59.4256 38.4242 59.8545 38.1499 60.1708C37.8756 60.4871 37.5048 60.6653 37.118 60.6665H35.8546C35.4637 60.6665 35.0888 60.8466 34.8124 61.1672C34.5359 61.4878 34.3806 61.9227 34.3806 62.3761Z" fill="white"/>
<path d="M12.0434 62.3761C12.0434 62.8281 11.8885 63.2617 11.6129 63.5813C11.3373 63.901 10.9635 64.0806 10.5737 64.0806H5.37397C4.98379 64.0806 0.726299 64.4001 0.449999 64.0806C0.173699 63.7611 3.90114 62.8286 3.9 62.3761L0.449999 43.5L3.9 25.4945C3.90113 25.0415 0.173822 23.7852 0.449999 23.4648C0.726177 23.1445 4.9834 23.7863 5.37397 23.785H10.9862C11.3768 23.7863 11.751 23.9668 12.0272 24.2871C12.3034 24.6074 12.4591 25.0415 12.4602 25.4945V25.9281C12.4591 26.3806 12.3033 26.8141 12.027 27.1337C11.7507 27.4532 11.3764 27.6326 10.9862 27.6326H9.26731C8.87714 27.6339 8.50333 27.8146 8.22784 28.1351C7.95234 28.4555 7.79764 28.8896 7.79764 29.3421L7.84061 58.977C7.84061 59.201 7.8788 59.4228 7.95297 59.6297C8.02715 59.8365 8.13586 60.0243 8.27285 60.1823C8.40983 60.3402 8.57239 60.4652 8.75117 60.55C8.92995 60.6348 9.12143 60.6778 9.31459 60.6765H10.578C10.9659 60.6791 11.3373 60.859 11.6117 61.1772C11.886 61.4954 12.0411 61.9261 12.0434 62.3761Z" fill="white"/>
<path d="M13.8869 57.711C13.8857 57.9283 13.8105 58.1362 13.6777 58.2893C13.5448 58.4425 13.3651 58.5284 13.1778 58.5284H10.6854C10.4988 58.5271 10.3202 58.4406 10.1883 58.2876C10.0564 58.1346 9.98175 57.9274 9.98062 57.711V40.0428C9.98062 39.826 10.0549 39.6181 10.187 39.4648C10.3192 39.3115 10.4985 39.2254 10.6854 39.2254H13.3798C13.5667 39.2254 13.7459 39.3115 13.8781 39.4648C14.0103 39.6181 14.0845 39.826 14.0845 40.0428V40.2371C14.0834 40.4535 14.0088 40.6607 13.8769 40.8137C13.7449 40.9667 13.5663 41.0532 13.3798 41.0545H12.5547C12.3674 41.0545 12.1877 41.1405 12.0548 41.2936C11.922 41.4468 11.8468 41.6546 11.8456 41.8719L19.8988 49.6104L11.8671 56.0763C11.8683 56.2935 11.9435 56.5014 12.0763 56.6546C12.2092 56.8077 12.3889 56.8937 12.5762 56.8937H13.1778C13.2707 56.893 13.3628 56.9137 13.4488 56.9544C13.5348 56.9952 13.613 57.0553 13.6789 57.1313C13.7448 57.2072 13.7971 57.2976 13.8328 57.3971C13.8685 57.4966 13.8869 57.6033 13.8869 57.711Z" fill="white"/>
<path d="M23.0745 38.1318C29.4374 38.1318 31.5 33.1359 31.5 31.5201C31.5 29.9043 29.4374 28.5945 23.0745 28.5945C16.7116 28.5945 14.825 29.9043 14.825 31.5201C14.825 33.1359 16.7116 38.1318 23.0745 38.1318Z" fill="white"/>
<path d="M19.8988 23.0972C14.8409 20.1068 21.8842 13.498 19.8258 9.21671C19.3703 8.25978 17.3634 9.11703 17.7889 9.9992C19.2886 13.1242 16.302 15.9451 16.0313 19.0452C15.8379 21.288 16.5856 23.4859 18.3561 24.5276C19.1038 24.9711 20.8958 23.6853 19.8988 23.0972Z" fill="white"/>
<path d="M22.937 14.6742C23.5987 12.7853 24.1144 10.687 23.6546 8.66348C23.0358 5.90733 21.1794 4.15297 21.0762 1.0928C21.0375 0.0162516 18.9749 0.594385 19.0049 1.47157C19.0428 3.32841 19.5103 5.13932 20.3586 6.71475C21.8283 9.46093 22.0044 11.6638 20.9516 14.6642C20.552 15.7956 22.619 15.4816 22.9026 14.6642L22.937 14.6742Z" fill="white"/>
<path d="M50.199 48.0191V35.4595H47.1668V48.0191H50.199ZM50.199 51.2219V48.0191H47.1668V51.5359H48.1415L47.1668 55.0526H48.6558L50.199 51.2219Z" fill="white"/>
</svg>
