<svg width="150" height="204" viewBox="0 0 150 204" fill="none" xmlns="http://www.w3.org/2000/svg">
<path d="M116.6 100.2C115.9 100.2 104.9 98.7 104.1 98.3C104.1 98.3 104 98.3 104 98.2C104.5 98.1 104.9 98.1 105.4 98C108.6 98.1 111.8 98.6 114.9 99.5C115.8 99.8 116.4 100.1 116.6 100.2Z" fill="#F79643"/>
<path d="M147 48.6L127.1 68.6L124 71.8L121.6 74.2L115.6 80.2L115.3 80.5L109.8 86L108 87.8L106.3 89.4L102.7 93L100.6 95.1C99.8 95.3 99.1 95.4 98.4 95.6C90.7 97.4 95.3 93.4 88.9 94.2C85.3 94.7 84.8 100.9 84.8 100.9C84.4 100.4 84 99.9 83.5 99.4L88.5 92.7L94.3 85L97.7 80.4L106.5 68.6L118.4 52.6H54.7V94.1C48 95.4 41.1 95.5 34.3 94.5C33.7 94.4 33.2 94.3 32.6 94.1V52.1H0V40.3H32.6V13.2L25.1 6V0H46.7L54.7 4.3V40.7L138.8 40.5L147 48.6Z" fill="#F79643"/>
<path d="M147 48.6L127.1 68.6L124 71.8L121.6 74.2L115.6 80.2L115.3 80.5C114 80.6 112.7 80.6 111.4 80.6C106.9 80.7 102.2 80.7 97.7 80.5L106.5 68.7L118.4 52.7H54.7V76.3C47.3 75.1 40 73.7 32.6 72.1V52.3H0V40.5H30.2C35.2 41.7 40.1 42.7 44.8 43.5C49.6 44.3 54.5 45 58.9 45.6L74.7 47.8C98.7 50.6 122.9 50.8 147 48.4V48.6Z" fill="#F4812E"/>
<path d="M138.8 40.3L54.7 40.5V7.1C52.2 5.9 49.6 4.8 47 4C44.4 3.2 44.8 7.1 42.4 6.5C36.8 5 34.2 2.2 29.1 0.900002C27.9 0.600002 26.7 0.3 25.5 0H25.1V6L32.6 13.5V40.6H0V52.4H32.6V64.7C35.4 64.5 38.3 64.4 41.1 64.6C43.3 64.8 35.7 61.8 35.7 61.8C36 61.5 47.8 64 53.9 64.9L54.6 65.6V52.9H118.3L106.4 68.9C109.5 69.4 112.5 70.2 115.3 71.4C111.3 71.6 109.2 71.7 105.2 71.7C110.7 72.1 116.1 73.4 121.5 74.2L123.9 71.8L120.2 70.8C118.2 68.5 121.8 68.3 127.1 68.7L147 48.7L146.9 48.6L138.8 40.3Z" fill="#FAAF46"/>
<path d="M146.4 130.3C146.4 130.2 146.3 130 146.3 129.9C145.4 129.9 144.4 130 143.5 130.1C140.6 130.4 141.7 130.8 143.7 131.2C144.6 131.4 145.7 131.5 146.7 131.6C146.7 131.1 146.6 130.7 146.4 130.3ZM148.7 140.6C148.5 139.6 148.4 138.5 148.2 137.5C148.1 136.8 147.9 136.1 147.8 135.5C147.7 135 147.6 134.4 147.4 133.9C145.8 134.2 144.1 134.4 142.5 134.4C140.3 134.5 137.9 134.4 136.1 134.3C135.2 134.2 134.5 134.2 134 134.1H133.9C133.7 134.1 133.5 134.1 133.3 134C133.3 134 133.1 134.2 132.7 134.4C131.3 135.4 129.8 136.3 128.3 137C127.7 137.1 127.1 137.3 126.5 137.5C127 140.1 127.4 142.7 127.5 145.3C127.1 145.4 126.7 145.5 126.3 145.6C126.7 145.5 127.1 145.4 127.5 145.3C127.5 145.7 127.6 146.1 127.6 146.4C127.6 146.5 127.6 146.5 127.6 146.5C127.7 147.9 127.7 149.3 127.6 150.8C127.7 157.2 126.8 163.5 125 169.6C124.8 170.5 124.4 171.5 124.1 172.4C120.3 184.1 109.3 192 97 191.7C92.6 191.8 88.2 191.2 83.9 189.9C80.1 189 76.8 186.9 74.4 183.9C76.8 183.1 79 181.5 80.4 179.4C80.4 179.4 80.4 179.3 80.5 179.3C82.2 176.8 83.1 173.7 82.9 170.6C83 168 82.4 165.4 81.1 163.1C79.9 161.1 78.3 159.5 76.3 158.3C74 157.1 71.4 156.5 68.8 156.5C66.2 156.4 63.6 157 61.3 158.3C59.2 159.4 57.6 161 56.5 163.1C55.3 165.4 54.7 168 54.7 170.6C54.7 174.3 55.4 178 56.8 181.4C57.1 182.1 57.4 182.8 57.7 183.4C59.9 183.2 62.1 183.1 64.2 182.9C67.3 182.7 72.5 182.8 72.5 182.8C67.8 183.6 63.1 184.1 58.3 184.4L72.9 183.4L58.8 185.2C59.2 186 59.8 186.8 60.3 187.7C63.9 187.7 67.4 187.7 70.2 187.8L70.1 188.2C67.7 189.5 65 190.2 62.3 190.2C62.4 190.3 62.4 190.4 62.5 190.4C62.5 190.4 62.5 190.4 62.5 190.5C63.2 191.3 63.9 192.1 64.7 192.9C66.2 194.5 67.9 195.9 69.7 197C73.9 199.7 78.7 201.5 83.6 202.3C86.8 202.9 90.1 203.3 93.4 203.4C93 203.6 92.7 203.7 92.4 203.8C92.8 203.7 93.1 203.5 93.5 203.4C94.5 203.4 95.5 203.5 96.5 203.5C106 203.5 115.5 201.3 124.1 197.2C132.4 193.2 139.2 186.5 143.2 178.1C143.3 177.9 143.4 177.6 143.5 177.3C146 172 147.7 166.5 148.6 160.7C149.1 157.2 149.4 153.7 149.4 150.2C149.6 147.2 149.3 143.9 148.7 140.6ZM141.4 138.5C139.8 139 139 139.2 137.4 139.7C138.7 139 140 138.6 141.4 138.5Z" fill="#1D8E45"/>
<path d="M148.7 161C147.8 166.7 146.1 172.3 143.6 177.6C143.5 177.9 143.4 178.1 143.3 178.4C142.3 180.5 141.1 182.4 139.8 184.3C134.4 186.8 128.9 189.2 123.4 191.5C122.4 191.9 121.5 192.3 120.5 192.7C118.8 193.4 117 194.1 115.3 194.8C109.2 197.4 98.2 201.8 93.6 203.6C93.3 203.8 92.9 203.9 92.5 204C92.8 203.9 93.1 203.7 93.5 203.6C97.6 201.8 107.2 197.6 114.6 194.2C116.4 193.4 118 192.6 119.4 191.9C119.4 191.9 124.4 188 124.4 187.9C122.8 188.6 122 188.9 120.4 189.5L122.5 188.4C117.7 187.3 101.6 195.2 91 197.8C87.9 198.5 84.8 199 81.6 199.3C85 197 96.7 193.9 96.7 193.9C93.2 192.3 80.4 195.7 69.8 197.3C68 196.1 66.3 194.8 64.8 193.2C64 192.4 63.3 191.6 62.6 190.7C62.6 190.7 62.6 190.7 62.6 190.6C62.5 190.5 62.5 190.4 62.4 190.4C61.7 189.5 61.1 188.7 60.5 187.8C59.9 186.9 59.4 186.2 59 185.3C58.8 185 58.7 184.7 58.5 184.5C58.3 184.2 58.1 183.8 57.9 183.4C57.6 182.7 57.3 182.1 57 181.4C64.9 181 72.8 180.3 80.5 179.2C80.5 179.2 80.5 179.3 80.4 179.3C78.9 181.4 76.8 183 74.4 183.8C76.8 186.8 80.2 188.9 83.9 189.8C88.1 191 92.6 191.6 97 191.6C109.3 191.9 120.3 184 124.1 172.3C124.4 171.4 124.7 170.4 125 169.5C129.9 168 134.8 166.4 139.7 164.6C142.6 163.5 145.7 162.3 148.7 161Z" fill="#0E7C3E"/>
<path d="M120.5 189.5C119.1 190.2 119.5 190 120.5 189.5V189.5Z" fill="#0E7C3E"/>
<path d="M136.7 184.7L132.6 186.2L136.7 184.7Z" fill="#57B847"/>
<path d="M149.6 150.5C149.6 154 149.3 157.5 148.8 161C147.9 166.7 146.2 172.3 143.7 177.6C139.3 179.7 134.9 181.8 130.7 184.1C129.1 186.6 127.2 188.8 124.9 190.6C124.4 190.9 124 191.2 123.4 191.5C122.4 191.9 121.5 192.3 120.5 192.7C118.6 193.4 116.7 193.9 114.7 194.3C112.3 195 109.8 195.3 107.2 195.1C107.2 195 113.7 191.4 113.7 191.3C107.2 191.4 97.9001 196.9 89.6001 200.8C87.6001 201.4 85.6001 202 83.7001 202.6C78.8001 201.8 74.0001 200 69.8001 197.3C68.0001 196.1 66.3001 194.8 64.8001 193.2C64.0001 192.4 63.3001 191.6 62.6001 190.7C62.6001 190.7 62.6001 190.7 62.6001 190.6C62.5001 190.5 62.5001 190.4 62.4001 190.4C61.7001 189.5 61.1001 188.7 60.5001 187.8C59.9001 186.9 59.4001 186.2 59.0001 185.3C58.8001 185 58.7001 184.7 58.5001 184.5C58.3001 184.2 58.1001 183.8 57.9001 183.4C57.6001 182.7 57.3001 182.1 57.0001 181.4C55.6001 178 54.9001 174.3 54.9001 170.6C54.8001 168 55.5001 165.4 56.7001 163.1C57.7001 161.1 59.4001 159.4 61.5001 158.3C63.8001 157.1 66.4001 156.5 69.0001 156.5C71.6001 156.5 74.2001 157.1 76.5001 158.3C78.4001 159.5 80.1001 161.1 81.3001 163.1C82.5001 165.4 83.1001 168 83.1001 170.6C83.3001 173.7 82.4001 176.7 80.7001 179.3C80.7001 179.3 80.7001 179.4 80.6001 179.4C79.1001 181.5 77.0001 183.1 74.6001 183.9C77.0001 186.9 80.4001 189 84.1001 189.9C88.3001 191.1 92.8001 191.7 97.2001 191.7C109.5 192 120.5 184.1 124.3 172.4C124.6 171.5 124.9 170.5 125.2 169.6C127 163.5 127.9 157.2 127.8 150.8C127.8 149.4 127.8 148 127.8 146.5V146.4C127.8 146 127.8 145.6 127.7 145.3C128.5 145.1 129.3 144.8 129.9 144.6C130.3 144.5 130.8 144.4 131.4 144.2C131.5 144.2 131.7 144.2 131.8 144.1C137.2 142.5 142.5 140.5 147.7 138.1C148 138 148.3 137.8 148.6 137.6C148.8 138.7 148.9 139.7 149.1 140.7C149.3 143.9 149.5 147.2 149.6 150.5Z" fill="#57B847"/>
<path d="M89.6 200.8C88.5 201.4 87.3 201.9 86.2 202.4C87.7 201.9 89.1 201.3 90.6 200.6C90.2 200.6 89.9 200.7 89.6 200.8Z" fill="#57B847"/>
<path d="M60.8001 162C54.5001 162.7 61.8001 162.5 60.8001 162V162Z" fill="#57B847"/>
<path d="M60.8 162C59.9 162.1 61 162.1 60.8 162V162Z" fill="#57B847"/>
<path d="M95.9 125.2C95.7 126.2 95.7 127.4 95.4 128.4C94.7 130 94 131.5 93 133C92.5 133.9 91.7999 134.7 91.1999 135.5C90.3999 136.5 89.5999 137.5 88.6999 138.4C87.3999 139.7 85.9 140.9 84.4 142C83.5 142.6 82.5 143.2 81.5 143.7C77.7 145.7 73.3999 146.8 69.0999 146.8C64.0999 146.9 59.0999 146.4 54.0999 145.4C47.7999 144.6 42.2 141.2 38.4 136.2C35 131.5 32.9999 125.8 32.7999 120C32.6999 118.9 32.7 117.7 32.7 116.5V83.8C35 84.6 36.2999 84.5 35.1999 82.6C35.1999 82.6 34.1 81.8 32.7 80.8V78.5C36.5 80.8 40.4999 82.7 44.6999 84.2C42.1999 83.8 40.9 83.5 38.3 83C42.1 86.9 48.8 88.1 54.8 88.1V116.5C54.6 121.1 55.8 125.7 58.3 129.5C60.7 133 64.7999 135 69.0999 134.5C72.9999 134.5 76.8 133.2 79.9 130.7C83.4 128.3 86.3999 125.2 88.6999 121.7C88.9999 121.1 89.4 120.6 90 120.2C90.4 119.9 90.9 119.8 91.5 119.7C91.9 119.7 92.2999 119.8 92.5999 119.9C93.2999 120.1 94 120.4 94.5 120.9C95.4 122.1 96 123.6 95.9 125.2Z" fill="#DFE0E1"/>
<path d="M148.7 140.6C146.9 141 147.6 139.3 144.3 140.9C141.8 142.2 142.4 146.4 142.4 146.4C142.2 146.2 135.8 142.9 135.8 142.9C135.8 142.9 133.4 143.5 131.4 144C131.3 144.1 131.2 144.1 131 144.1C130.4 144.3 129.9 144.4 129.5 144.5C128.9 144.7 128.1 144.9 127.3 145.2C127.2 142.6 126.8 139.9 126.3 137.4C126.2 136.9 126.1 136.5 126 136C125.5 133.6 124.8 131.3 123.9 129.1C123.8 128.8 123.7 128.5 123.6 128.3C121.9 123.5 118.9 119.2 115 116C114.2 115.4 113.4 114.7 112.6 114.2C107.9 111.2 102.4 109.7 96.7999 109.7C91.7999 110.1 86.9999 111.7 82.6999 114.5L72.3999 119.5V114.5L83.3999 99.8L88.3999 93.1L94.1999 85.4C95.0999 85.3 95.8999 85.2 96.7999 85.3C101 85.4 105.4 85.9 109.7 86.3L107.9 88.1L106.2 89.8L102.6 93.4L100.5 95.5L95.4999 100.5C98.1999 99.4 101 98.7 103.9 98.4C104.4 98.3 104.8 98.3 105.3 98.2C108.5 98.3 111.7 98.8 114.8 99.7C118.1 100.6 121.2 101.9 124.1 103.5C128.3 105.5 132 108.2 135.3 111.5C137.2 113.5 138.9 115.7 140.4 118C141.6 119.8 142.6 121.6 143.6 123.5L143.8 123.9C143.9 124.1 144 124.3 144.1 124.6C144.4 125.2 144.7 125.9 144.9 126.5C145 126.7 145.1 126.9 145.1 127.1C145.5 128.1 145.9 129 146.2 130C146.3 130.1 146.3 130.3 146.3 130.4C146.4 130.8 146.6 131.2 146.7 131.7C146.9 132.4 147.1 133.2 147.3 133.9C147.4 134.5 147.6 135 147.7 135.6C147.8 136.3 148 137 148.1 137.6C148.4 138.5 148.6 139.6 148.7 140.6Z" fill="#DFE0E1"/>
<path d="M127.4 146.4C127.4 146.5 127.4 146.5 127.4 146.5C127.6 146.4 127.5 146.4 127.4 146.4Z" fill="#DFE0E1"/>
<path d="M54.7 83.6V84.9C52.5 83.8 49.2 81.7 48.7 81.3C49.2 81.5 52.4 82.7 54.7 83.6Z" fill="#DFE0E1"/>
<path d="M105 85.1C105 85.1 99.2999 83.7 105 85.1V85.1Z" fill="#DFE0E1"/>
<path d="M115.6 80.2C115.4 80.2 115.3 80.1 115.2 80.1C115.3 80.1 115.5 80.2 115.6 80.2Z" fill="#DFE0E1"/>
<path d="M146.4 130.3C145.5 130.6 144.6 130.9 143.7 131.1C143.1 131.3 142.6 131.4 142 131.6C139.3 132.4 136.5 133.2 133.7 134L132.5 134.3C130.3 134.9 128.1 135.4 126 136C125.5 133.6 124.8 131.3 123.9 129.1C123.8 128.8 123.7 128.5 123.6 128.3C121.9 123.5 118.9 119.2 115 116C125.2 113.8 126.4 113.6 126.4 113.6C129.4 112.9 132.3 112.2 135.2 111.4C137.1 113.4 138.8 115.6 140.3 117.9C141.5 119.7 142.5 121.5 143.5 123.4L143.7 123.8C143.8 124 143.9 124.2 144 124.5C144.3 125.1 144.6 125.8 144.8 126.4C144.9 126.6 145 126.8 145 127C145.4 128 145.8 128.9 146.1 129.9C146.4 130 146.4 130.2 146.4 130.3Z" fill="#D4D6D7"/>
<path d="M95.8999 125.2C95.6999 126.2 95.6999 127.4 95.3999 128.4C94.6999 130 93.9999 131.5 92.9999 133C92.4999 133.9 91.7999 134.7 91.1999 135.5C90.3999 136.5 89.5999 137.5 88.6999 138.4C87.3999 139.7 85.8999 140.9 84.3999 142C83.4999 142.6 82.4999 143.2 81.4999 143.7C73.0999 144.6 64.5999 145.3 56.0999 145.4C55.3999 145.4 54.7999 145.4 54.0999 145.4C48.9999 144.5 44.1999 142.1 40.4999 138.6C39.7999 137.8 39.0999 137 38.4999 136.2C35.0999 131.5 33.0999 125.8 32.8999 120C33.5999 120.1 34.1999 120.1 35.0999 120.2C36.1999 120.3 37.1999 120.4 38.2999 120.5L44.9999 121C48.3999 121.2 51.7999 121.4 55.1999 121.5C55.6999 124.3 56.7999 127 58.3999 129.4C60.7999 132.9 64.8999 134.9 69.1999 134.4C73.0999 134.4 76.8999 133.1 79.9999 130.6C83.4999 128.2 86.4999 125.1 88.7999 121.6C89.0999 121 89.4999 120.5 90.0999 120.1C90.9999 120 91.7999 119.9 92.6999 119.8C93.3999 120 94.0999 120.3 94.5999 120.8C95.3999 122.1 95.9999 123.6 95.8999 125.2Z" fill="#D4D6D7"/>
<path d="M145.2 126.9C142.2 127.4 137.8 128 137.3 128C136.9 128 136.6 127.2 138.3 126.8C140.5 126.4 142.7 126.3 144.9 126.4C145.1 126.6 145.2 126.7 145.2 126.9Z" fill="white"/>
<path d="M131.5 126.5C131.5 126.5 136.4 130.2 137 130.6C132.7 129.7 128.4 129.1 124 128.9C123.9 128.6 123.8 128.3 123.7 128.1C122 123.3 119 119 115.1 115.8C114.3 115.2 113.5 114.5 112.7 114C108 111 102.5 109.5 96.9 109.5C91.9 109.9 87.1 111.5 82.8 114.3L72.5 119.3V114.3L83.5 99.6L88.5 92.9C93.7 93.1 98.7 93.2 102.7 93.1L100.6 95.2L95.6 100.2C98.3 99.1 101.1 98.4 104 98.1C104.5 98 104.9 98 105.4 97.9C108.6 98 111.8 98.5 114.9 99.4C118.2 100.3 121.3 101.6 124.2 103.2C128.4 105.2 132.1 107.9 135.4 111.2C137.3 113.2 139 115.4 140.5 117.7C141.7 119.5 142.7 121.3 143.7 123.2C140.3 124.2 131.5 126.5 131.5 126.5Z" fill="white"/>
<path d="M94.3 120.9C93.8 120.4 93.1 120 92.4 119.9C92 119.8 91.7 119.7 91.3 119.7C90.8 119.8 90.3 119.9 89.9 120.2C89.4 120.6 88.9 121.1 88.6 121.7C86.3 125.3 83.3 128.3 79.8 130.7C76.7 133.1 72.9 134.4 69 134.5C64.8 135 60.6 133 58.2 129.5C56.6 127.1 55.5 124.4 55 121.6C54.7 119.9 54.6 118.2 54.7 116.5V90.2C53 89.2 51.2 88.4 49.2 87.8C45.4 87.5 41.6 88 38 89.3C36.4 88 34.5 87 32.5 86.4V116.4C32.5 117.6 32.5 118.8 32.6 119.9C32.9 125.7 34.8 131.4 38.2 136.1C42.8 136.7 47.4 137.1 52 137.4C54 137.5 65 139.8 65 139.8C65.6 139.3 66.2 138.9 66.8 138.6C68.3 137.7 69.9 136.8 71.6 136.1C75.4 134.6 80 133.6 83.3 136C82.6 136.9 81.9 137.8 81.4 138.8C80.8 140.1 81.1 141.2 84.3 140.3C85.8 139.8 87.2 139.2 88.6 138.4C89.5 137.5 90.3 136.5 91.1 135.5C90.1 135.6 89.1 135.7 87.9 135.8C89.4 134.6 91.1 133.6 92.9 133C93.8 131.5 94.6 130 95.3 128.4C95.6 127.4 95.6 126.2 95.8 125.2C96 123.6 95.4 122 94.3 120.9ZM52.8 130.9C55.3 131 56.6 131.1 59.1 131.1C57 131.5 54.9 131.4 52.8 130.9Z" fill="white"/>
<path d="M143.9 123.8C143.3 124.3 142.7 124.8 143.6 124.6C143.8 124.6 144 124.5 144.2 124.5C144.1 124.3 144 124 143.9 123.8Z" fill="white"/>
<path d="M72.3 142.5C80.4 143.7 72.3 142.5 72.3 142.5V142.5Z" fill="white"/>
</svg>
