<svg width="48" height="48" viewBox="0 0 48 48" fill="none" xmlns="http://www.w3.org/2000/svg">
<path d="M44.1701 41.1799H3.83012C3.36431 41.1772 2.90756 41.0509 2.50658 40.8138C2.1056 40.5767 1.77478 40.2374 1.54795 39.8306C1.32113 39.4237 1.20643 38.9639 1.2156 38.4982C1.22476 38.0324 1.35746 37.5775 1.60012 37.1799L21.7701 5.17986C22.0083 4.80399 22.3376 4.49441 22.7275 4.2799C23.1174 4.06539 23.5551 3.95291 24.0001 3.95291C24.4451 3.95291 24.8829 4.06539 25.2727 4.2799C25.6626 4.49441 25.9919 4.80399 26.2301 5.17986L46.4001 37.1799C46.6428 37.5775 46.7755 38.0324 46.7846 38.4982C46.7938 38.9639 46.6791 39.4237 46.4523 39.8306C46.2255 40.2374 45.8946 40.5767 45.4937 40.8138C45.0927 41.0509 44.6359 41.1772 44.1701 41.1799ZM6.31012 37.1799H41.6901L24.0001 9.09987L6.31012 37.1799Z" fill="#F1FAF2"/>
<path d="M25.32 16.0699H22.68C22.3044 16.0699 22 16.3743 22 16.7499V28.6799C22 29.0554 22.3044 29.3599 22.68 29.3599H25.32C25.6956 29.3599 26 29.0554 26 28.6799V16.7499C26 16.3743 25.6956 16.0699 25.32 16.0699Z" fill="#F1FAF2"/>
<path d="M25.32 31.4399H22.68C22.3044 31.4399 22 31.7443 22 32.1199V33.9199C22 34.2954 22.3044 34.5999 22.68 34.5999H25.32C25.6956 34.5999 26 34.2954 26 33.9199V32.1199C26 31.7443 25.6956 31.4399 25.32 31.4399Z" fill="#F1FAF2"/>
</svg>
