<svg width="48" height="48" viewBox="0 0 48 48" fill="none" xmlns="http://www.w3.org/2000/svg">
<path d="M46.4001 37.14L26.2301 5.13999C25.9919 4.76411 25.6626 4.45454 25.2727 4.24003C24.8829 4.02552 24.4451 3.91304 24.0001 3.91304C23.5551 3.91304 23.1174 4.02552 22.7275 4.24003C22.3376 4.45454 22.0083 4.76411 21.7701 5.13999L1.60012 37.14C1.35746 37.5376 1.22476 37.9926 1.2156 38.4583C1.20643 38.924 1.32113 39.3838 1.54795 39.7907C1.77478 40.1976 2.1056 40.5369 2.50658 40.7739C2.90756 41.011 3.36431 41.1373 3.83012 41.14H44.1701C44.6359 41.1373 45.0927 41.011 45.4937 40.7739C45.8946 40.5369 46.2255 40.1976 46.4523 39.7907C46.6791 39.3838 46.7938 38.924 46.7846 38.4583C46.7755 37.9926 46.6428 37.5376 46.4001 37.14ZM26.0001 33.92C26.0001 34.1003 25.9285 34.2733 25.801 34.4008C25.6734 34.5284 25.5005 34.6 25.3201 34.6H22.6801C22.4998 34.6 22.3268 34.5284 22.1993 34.4008C22.0718 34.2733 22.0001 34.1003 22.0001 33.92V32.12C22.0027 31.9405 22.0752 31.769 22.2021 31.642C22.3291 31.5151 22.5006 31.4426 22.6801 31.44H25.3201C25.4997 31.4426 25.6711 31.5151 25.7981 31.642C25.9251 31.769 25.9975 31.9405 26.0001 32.12V33.92ZM26.0001 28.68C26.0001 28.8603 25.9285 29.0333 25.801 29.1608C25.6734 29.2884 25.5005 29.36 25.3201 29.36H22.6801C22.4998 29.36 22.3268 29.2884 22.1993 29.1608C22.0718 29.0333 22.0001 28.8603 22.0001 28.68V16.76C22.0001 16.5787 22.0714 16.4047 22.1987 16.2756C22.3259 16.1465 22.4989 16.0726 22.6801 16.07H25.3201C25.5014 16.0726 25.6743 16.1465 25.8016 16.2756C25.9288 16.4047 26.0001 16.5787 26.0001 16.76V28.68Z" fill="#F1FAF2"/>
</svg>
